<svg xmlns="http://www.w3.org/2000/svg" width="48" height="48" viewBox="0 0 48 48">
  <g id="Group_4" transform="translate(-58 -307)">
    <rect id="Rectangle_1" width="48" height="48" transform="translate(58 307)" fill="none"/>
    <path id="Path_4" d="M13.893-4.511a1.849,1.849,0,0,0,1.294-.658l9.027-8.951a3.1,3.1,0,0,0-2.128-.548H5.37a2.646,2.646,0,0,0-1.843.5l9.082,8.995A1.828,1.828,0,0,0,13.893-4.511ZM2.628,1.632,10-5.673,2.617-12.957A3.335,3.335,0,0,0,2.354-11.4V.063A3.225,3.225,0,0,0,2.628,1.632ZM25.147,1.61A3.492,3.492,0,0,0,25.4.063V-11.4a3.469,3.469,0,0,0-.252-1.536l-7.36,7.261ZM5.666,3.332H22.383a2.7,2.7,0,0,0,1.854-.5L16.723-4.631l-.68.68a3.066,3.066,0,0,1-2.15,1.009,3.066,3.066,0,0,1-2.15-1.009l-.68-.68L3.571,2.806A3.192,3.192,0,0,0,5.666,3.332Z" transform="translate(68.146 336.668)" fill="#fff"/>
  </g>
</svg>
