<svg xmlns="http://www.w3.org/2000/svg" width="48" height="48" viewBox="0 0 48 48">
  <g id="Group_2" transform="translate(-58 -307)">
    <rect id="Rectangle_1" width="48" height="48" transform="translate(58 307)" fill="none"/>
    <g id="logo-twitter" transform="translate(50.9 258)">
      <g id="Group_3" transform="translate(20.1 64)">
        <path id="Path_3" d="M42.22,66.133a9.175,9.175,0,0,1-2.606.717,4.554,4.554,0,0,0,2-2.513,9.018,9.018,0,0,1-2.883,1.1,4.537,4.537,0,0,0-7.852,3.1,4.443,4.443,0,0,0,.117,1.036,12.861,12.861,0,0,1-9.356-4.748A4.547,4.547,0,0,0,23.048,70.9a4.432,4.432,0,0,1-2.063-.567v.056a4.542,4.542,0,0,0,3.642,4.453,4.568,4.568,0,0,1-1.2.159,4.281,4.281,0,0,1-.853-.084,4.545,4.545,0,0,0,4.242,3.155,9.1,9.1,0,0,1-5.639,1.945,9.2,9.2,0,0,1-1.083-.066A12.685,12.685,0,0,0,27.047,82,12.836,12.836,0,0,0,39.97,69.072c0-.2,0-.394-.014-.586A9.238,9.238,0,0,0,42.22,66.133Z" transform="translate(-20.1 -64)" fill="#fff"/>
      </g>
    </g>
  </g>
</svg>
