<?xml version="1.0" standalone="no"?>
<!DOCTYPE svg PUBLIC "-//W3C//DTD SVG 20010904//EN"
 "http://www.w3.org/TR/2001/REC-SVG-20010904/DTD/svg10.dtd">
<svg version="1.0" xmlns="http://www.w3.org/2000/svg"
 width="3840.000000pt" height="3840.000000pt" viewBox="0 0 3840.000000 3840.000000"
 preserveAspectRatio="xMidYMid meet">
<metadata>
Created by potrace 1.11, written by Peter Selinger 2001-2013
</metadata>
<g transform="translate(0.000000,3840.000000) scale(0.100000,-0.100000)"
fill="#000000" stroke="none">
<path d="M1885 29384 c-263 -30 -411 -101 -586 -281 -142 -145 -198 -245 -246
-438 -16 -66 -17 -385 -20 -5407 l-3 -5338 15957 0 c8777 0 16104 -3 16283 -6
380 -5 541 -16 779 -50 1279 -183 2428 -858 3245 -1907 l76 -98 -3 6368 c-3
6002 -4 6372 -20 6438 -49 196 -115 312 -264 456 -145 142 -245 198 -438 246
-66 16 -976 17 -17400 19 -9531 0 -17343 0 -17360 -2z m31040 -1044 c750 -64
1381 -292 1865 -676 188 -149 409 -399 540 -609 75 -120 177 -342 225 -487 70
-215 125 -523 125 -705 l0 -53 -730 0 -730 0 0 30 c0 45 -35 217 -60 290 -65
193 -172 361 -323 507 -162 155 -345 264 -565 337 -224 75 -400 104 -667 113
-758 24 -1347 -242 -1584 -714 -72 -145 -110 -361 -92 -526 15 -132 34 -199
91 -312 121 -244 364 -430 755 -578 240 -91 407 -132 1115 -277 300 -61 633
-133 740 -160 1121 -280 1764 -715 2049 -1385 212 -497 214 -1237 6 -1801
-344 -932 -1237 -1535 -2500 -1688 -438 -53 -1014 -45 -1450 19 -751 112
-1397 405 -1830 831 -293 288 -495 630 -610 1029 -31 107 -71 321 -79 425 -4
41 -9 96 -12 123 l-6 47 730 0 731 0 11 -57 c125 -645 708 -1078 1580 -1174
167 -19 526 -16 680 5 639 87 1105 368 1290 781 105 235 113 522 22 763 -121
316 -443 554 -977 721 -197 61 -320 89 -955 221 -658 136 -826 177 -1086 261
-555 181 -966 417 -1269 730 -313 323 -478 675 -547 1164 -19 136 -16 524 5
660 76 492 272 890 611 1242 499 519 1243 831 2161 906 99 8 632 6 740 -3z
m-26585 -3090 c1724 -2436 2099 -2960 2118 -2960 l22 0 0 2960 0 2960 730 0
730 0 0 -4230 0 -4230 -657 2 -657 3 -2097 2960 c-1523 2150 -2103 2961 -2118
2963 l-21 3 0 -2965 0 -2966 -735 0 -735 0 0 4230 0 4230 663 0 662 -1 2095
-2959z m10570 2320 l0 -640 -1980 0 -1980 0 0 -1140 0 -1140 1870 0 1870 0 0
-605 0 -605 -1870 0 -1870 0 0 -1200 0 -1200 1980 0 1980 0 0 -645 0 -645
-2740 0 -2740 0 0 4230 0 4230 2740 0 2740 0 0 -640z m2395 618 c26 -110 1455
-6364 1455 -6370 0 -4 9 -8 20 -8 14 0 22 11 30 38 6 20 388 1459 849 3197
l838 3160 675 3 676 2 5 -22 c4 -13 385 -1453 849 -3201 763 -2877 845 -3177
862 -3175 17 3 103 370 750 3200 l731 3198 792 0 791 0 -8 -32 c-5 -18 -514
-1914 -1130 -4213 -616 -2299 -1123 -4188 -1126 -4197 -5 -17 -48 -18 -722
-18 l-717 0 -865 3060 c-823 2914 -865 3060 -887 3060 -19 0 -25 -10 -42 -67
-11 -38 -396 -1400 -856 -3028 -460 -1628 -841 -2975 -846 -2992 l-11 -33
-716 0 -717 0 -1128 4208 c-620 2314 -1130 4217 -1134 4230 l-5 22 791 0 791
0 5 -22z"/>
<path d="M10297 17342 c-16 -17 -17 -136 -17 -1508 0 -1146 3 -1493 12 -1502
9 -9 309 -12 1290 -12 l1278 0 0 -364 c0 -315 -3 -379 -19 -478 -39 -226 -100
-364 -258 -586 -347 -486 -469 -713 -522 -977 -34 -169 -41 -302 -41 -816 0
-468 1 -497 18 -512 17 -15 77 -17 659 -17 607 0 641 1 656 18 15 17 17 65 17
483 0 455 5 543 35 664 32 126 139 314 420 735 86 129 178 280 205 335 113
236 157 452 180 880 15 282 13 1788 -2 1803 -9 9 -312 12 -1300 12 l-1288 0 0
913 c0 873 -1 915 -18 930 -17 15 -77 17 -654 17 -602 0 -636 -1 -651 -18z"/>
<path d="M21970 15550 c-421 -19 -816 -67 -1122 -136 l-67 -15 5 -42 c3 -23
25 -258 49 -521 38 -413 47 -482 62 -498 18 -17 25 -17 193 2 868 98 1406 82
1790 -52 485 -170 712 -514 750 -1141 5 -84 10 -692 10 -1352 0 -921 3 -1204
12 -1213 19 -19 1301 -17 1317 2 9 10 11 390 8 1517 -3 1364 -5 1515 -20 1618
-71 463 -200 793 -420 1066 -296 368 -780 612 -1417 715 -295 47 -760 68
-1150 50z"/>
<path d="M15300 15481 c-5 -11 -10 -24 -10 -30 0 -5 249 -364 554 -797 l554
-788 -102 -74 c-55 -41 -153 -127 -217 -191 -362 -363 -523 -733 -633 -1451
-32 -209 -45 -329 -106 -1000 -45 -503 -48 -546 -33 -562 15 -17 54 -18 660
-18 353 0 643 3 643 8 0 4 18 234 40 512 22 278 40 552 40 610 1 326 69 709
168 938 69 160 177 321 200 297 5 -5 384 -540 842 -1187 l832 -1178 768 0 768
0 12 30 c10 25 10 34 -3 52 -8 13 -332 470 -720 1017 l-706 994 57 40 c270
189 521 459 661 710 46 84 114 255 150 380 92 316 141 624 206 1306 32 339 34
366 18 383 -15 17 -50 18 -629 18 l-612 0 -6 -27 c-5 -29 -58 -722 -76 -998
-18 -281 -61 -466 -153 -650 -69 -140 -202 -300 -229 -277 -7 6 -321 447 -698
981 l-685 970 -772 1 c-754 0 -773 0 -783 -19z"/>
<path d="M26160 15485 c-12 -14 0 -446 50 -1885 18 -512 73 -886 186 -1262
293 -981 986 -1633 1942 -1827 660 -134 1439 -70 1999 165 440 184 888 556
1146 949 208 318 349 775 441 1428 36 252 49 385 140 1447 75 869 82 967 68
983 -14 16 -59 17 -668 17 l-652 0 -7 -62 c-18 -184 -125 -1719 -130 -1868
-23 -653 -137 -1086 -378 -1445 -79 -116 -274 -312 -387 -386 -217 -144 -438
-221 -720 -250 -288 -29 -581 21 -822 141 -295 147 -496 352 -597 607 l-21 53
23 4 c12 3 51 8 87 11 207 19 529 87 720 151 135 46 360 155 475 232 179 119
283 222 399 395 119 179 180 326 220 536 46 237 60 406 107 1268 25 469 29
586 19 598 -11 13 -95 15 -661 15 l-649 0 0 -37 c0 -21 -9 -198 -20 -393 -12
-195 -25 -485 -30 -645 -19 -589 -75 -800 -266 -990 -138 -139 -343 -232 -552
-251 l-72 -7 0 29 c0 16 -10 214 -21 439 -15 296 -22 612 -26 1133 l-5 722
-663 0 c-575 0 -664 -2 -675 -15z"/>
<path d="M33322 15488 c-9 -9 -12 -328 -12 -1373 0 -1307 1 -1363 18 -1378 17
-16 79 -17 684 -17 631 0 666 1 681 18 16 17 17 127 17 1374 0 1300 -1 1356
-18 1371 -17 16 -79 17 -688 17 -508 0 -673 -3 -682 -12z"/>
</g>
</svg>
